<svg id="Layer_1" data-name="Layer 1" xmlns="http://www.w3.org/2000/svg" viewBox="0 0 300 265.55"><defs><style>.cls-1{fill:#fff;}.cls-2,.cls-4{fill:none;stroke-miterlimit:10;}.cls-2{stroke:#bcbec0;}.cls-3{fill:#4dbce3;}.cls-4{stroke:#231f20;stroke-width:2px;}</style></defs><rect class="cls-1" width="300" height="265.55" rx="12"/><line class="cls-2" x1="37.22" y1="61.38" x2="137.28" y2="124.89"/><line class="cls-2" x1="38.96" y1="49.86" x2="134.93" y2="29.76"/><line class="cls-2" x1="39.09" y1="56.49" x2="134.8" y2="76.35"/><line class="cls-2" x1="35.35" y1="63.9" x2="139.36" y2="175.32"/><line class="cls-2" x1="141.37" y1="226.65" x2="33.22" y2="65.85"/><line class="cls-2" x1="37.08" y1="98.52" x2="136.5" y2="34.84"/><line class="cls-2" x1="38.9" y1="102.78" x2="134.8" y2="82.81"/><line class="cls-2" x1="39.15" y1="109.34" x2="135.25" y2="129.57"/><line class="cls-2" x1="37.32" y1="114.38" x2="137.26" y2="178.39"/><line class="cls-2" x1="139.59" y1="228.12" x2="34.66" y2="117.8"/><line class="cls-2" x1="138.65" y1="37.99" x2="34.56" y2="148.6"/><line class="cls-2" x1="141.14" y1="40.27" x2="32.64" y2="199.89"/><line class="cls-2" x1="136.97" y1="88.2" x2="37.03" y2="151.63"/><line class="cls-2" x1="139.27" y1="91.17" x2="34.57" y2="201.79"/><line class="cls-2" x1="135.08" y1="136.22" x2="38.85" y2="155.77"/><line class="cls-2" x1="137.05" y1="141.34" x2="37.18" y2="205.03"/><line class="cls-2" x1="135.13" y1="183.09" x2="39.39" y2="162.68"/><line class="cls-2" x1="136.93" y1="231.46" x2="37.29" y2="167.61"/><line class="cls-2" x1="135.04" y1="189.58" x2="39.11" y2="209.68"/><line class="cls-2" x1="135.18" y1="235.89" x2="39.14" y2="215.76"/><line class="cls-2" x1="165.18" y1="32.03" x2="261.8" y2="73.8"/><line class="cls-2" x1="162.66" y1="36.91" x2="264.27" y2="123.02"/><line class="cls-2" x1="160.09" y1="39.77" x2="266.3" y2="174.12"/><line class="cls-2" x1="165.77" y1="79.58" x2="260.38" y2="79.58"/><line class="cls-2" x1="164.75" y1="85.84" x2="261.72" y2="126.97"/><line class="cls-2" x1="162.37" y1="89.98" x2="263.91" y2="176.45"/><line class="cls-2" x1="164.42" y1="126.97" x2="261.58" y2="86.28"/><line class="cls-2" x1="165.77" y1="133.29" x2="260.38" y2="133.29"/><line class="cls-2" x1="164.66" y1="139.08" x2="261.06" y2="180.47"/><line class="cls-2" x1="161.77" y1="175.9" x2="263.8" y2="89.99"/><line class="cls-2" x1="164.42" y1="179.97" x2="261.42" y2="138.89"/><line class="cls-2" x1="159.84" y1="226.52" x2="266.66" y2="92.74"/><line class="cls-2" x1="162.27" y1="229.32" x2="263.8" y2="143"/><line class="cls-2" x1="166.06" y1="186.16" x2="260.38" y2="186.3"/><line class="cls-2" x1="164.61" y1="233.4" x2="261.29" y2="192.55"/><circle class="cls-3" cx="23.9" cy="53.48" r="15.49"/><circle class="cls-3" cx="23.9" cy="106.66" r="15.49"/><circle class="cls-3" cx="23.9" cy="159.83" r="15.49"/><circle class="cls-4" cx="23.9" cy="213.01" r="15.49"/><circle class="cls-3" cx="150.29" cy="27.78" r="15.49"/><circle class="cls-4" cx="150.29" cy="80.28" r="15.49"/><circle class="cls-3" cx="150.29" cy="133.29" r="15.49"/><circle class="cls-3" cx="150.29" cy="186.3" r="15.49"/><circle class="cls-4" cx="150.29" cy="239.31" r="15.49"/><circle class="cls-4" cx="275.86" cy="80.28" r="15.49"/><circle class="cls-3" cx="275.86" cy="133.29" r="15.49"/><circle class="cls-4" cx="275.86" cy="186.3" r="15.49"/></svg>