<svg id="Layer_1" data-name="Layer 1" xmlns="http://www.w3.org/2000/svg" viewBox="0 0 285.94 244.01"><defs><style>.cls-1,.cls-3{fill:none;stroke-miterlimit:10;}.cls-1{stroke:#bcbec0;}.cls-2{fill:#4dbce3;}.cls-3{stroke:#231f20;stroke-width:3px;}</style></defs><line class="cls-1" x1="30.31" y1="49.09" x2="130.37" y2="112.6"/><line class="cls-1" x1="32.05" y1="37.57" x2="128.02" y2="17.47"/><line class="cls-1" x1="32.18" y1="44.21" x2="127.89" y2="64.07"/><line class="cls-1" x1="28.44" y1="51.62" x2="132.45" y2="163.03"/><line class="cls-1" x1="134.46" y1="214.36" x2="26.31" y2="53.56"/><line class="cls-1" x1="30.17" y1="86.23" x2="129.59" y2="22.55"/><line class="cls-1" x1="31.99" y1="90.49" x2="127.89" y2="70.52"/><line class="cls-1" x1="32.24" y1="97.05" x2="128.34" y2="117.28"/><line class="cls-1" x1="30.41" y1="102.1" x2="130.35" y2="166.1"/><line class="cls-1" x1="132.68" y1="215.83" x2="27.75" y2="105.51"/><line class="cls-1" x1="131.74" y1="25.7" x2="27.65" y2="136.31"/><line class="cls-1" x1="134.23" y1="27.98" x2="25.73" y2="187.61"/><line class="cls-1" x1="130.06" y1="75.91" x2="30.12" y2="139.34"/><line class="cls-1" x1="132.36" y1="78.88" x2="27.66" y2="189.5"/><line class="cls-1" x1="128.17" y1="123.93" x2="31.94" y2="143.48"/><line class="cls-1" x1="130.14" y1="129.06" x2="30.27" y2="192.74"/><line class="cls-1" x1="128.22" y1="170.8" x2="32.48" y2="150.39"/><line class="cls-1" x1="130.02" y1="219.17" x2="30.38" y2="155.32"/><line class="cls-1" x1="128.13" y1="177.29" x2="32.2" y2="197.39"/><line class="cls-1" x1="128.27" y1="223.6" x2="32.23" y2="203.47"/><line class="cls-1" x1="158.27" y1="19.74" x2="254.89" y2="61.51"/><line class="cls-1" x1="155.75" y1="24.62" x2="257.36" y2="110.73"/><line class="cls-1" x1="153.18" y1="27.48" x2="259.39" y2="161.83"/><line class="cls-1" x1="158.86" y1="67.29" x2="253.47" y2="67.29"/><line class="cls-1" x1="157.84" y1="73.55" x2="254.81" y2="114.68"/><line class="cls-1" x1="155.46" y1="77.69" x2="257" y2="164.16"/><line class="cls-1" x1="157.51" y1="114.68" x2="254.67" y2="73.99"/><line class="cls-1" x1="158.86" y1="121" x2="253.47" y2="121"/><line class="cls-1" x1="157.75" y1="126.79" x2="254.15" y2="168.19"/><line class="cls-1" x1="154.86" y1="163.61" x2="256.89" y2="77.7"/><line class="cls-1" x1="157.51" y1="167.68" x2="254.51" y2="126.6"/><line class="cls-1" x1="152.93" y1="214.23" x2="259.75" y2="80.45"/><line class="cls-1" x1="155.36" y1="217.03" x2="256.89" y2="130.72"/><line class="cls-1" x1="159.15" y1="173.88" x2="253.47" y2="174.01"/><line class="cls-1" x1="157.7" y1="221.11" x2="254.38" y2="180.26"/><circle class="cls-2" cx="16.99" cy="41.19" r="15.49"/><circle class="cls-2" cx="16.99" cy="94.37" r="15.49"/><circle class="cls-2" cx="16.99" cy="147.54" r="15.49"/><circle class="cls-3" cx="16.99" cy="200.72" r="15.49"/><circle class="cls-2" cx="143.38" cy="15.49" r="15.49"/><circle class="cls-3" cx="143.38" cy="68" r="15.49"/><circle class="cls-2" cx="143.38" cy="121" r="15.49"/><circle class="cls-2" cx="143.38" cy="174.01" r="15.49"/><circle class="cls-3" cx="143.38" cy="227.02" r="15.49"/><circle class="cls-3" cx="268.95" cy="68" r="15.49"/><circle class="cls-2" cx="268.95" cy="121" r="15.49"/><circle class="cls-3" cx="268.95" cy="174.01" r="15.49"/></svg>